<?xml version="1.0" standalone="no"?>
<!DOCTYPE svg PUBLIC "-//W3C//DTD SVG 20010904//EN"
 "http://www.w3.org/TR/2001/REC-SVG-20010904/DTD/svg10.dtd">
<svg version="1.0" xmlns="http://www.w3.org/2000/svg"
 width="512.000000pt" height="512.000000pt" viewBox="0 0 512.000000 512.000000"
 preserveAspectRatio="xMidYMid meet">
<metadata>
Created by potrace 1.14, written by Peter Selinger 2001-2017
</metadata>
<g transform="translate(0.000000,512.000000) scale(0.100000,-0.100000)"
fill="#000000" stroke="none">
<path d="M0 2560 l0 -2560 2560 0 2560 0 0 2560 0 2560 -2560 0 -2560 0 0
-2560z m1588 784 l22 -15 0 -492 c0 -461 2 -495 19 -534 22 -48 45 -63 97 -63
44 0 74 -23 74 -58 0 -43 -27 -62 -84 -62 -102 0 -193 76 -215 180 -7 33 -11
224 -11 540 l0 489 22 15 c12 9 29 16 38 16 9 0 26 -7 38 -16z m-493 -354 c81
-13 174 -61 224 -115 44 -48 51 -74 25 -99 -25 -26 -67 -20 -100 15 -57 60
-109 83 -203 87 -82 4 -89 2 -150 -30 -112 -58 -168 -170 -159 -317 6 -94 35
-164 91 -219 64 -62 126 -86 222 -86 85 0 129 14 197 61 44 30 78 26 98 -12
12 -23 11 -28 -6 -52 -29 -39 -128 -90 -202 -103 -214 -41 -419 68 -494 263
-26 67 -35 206 -18 278 41 173 169 301 330 328 76 12 78 12 145 1z m1184 0
c192 -32 331 -200 331 -402 0 -79 7 -78 -372 -78 -181 0 -328 -2 -328 -4 0 -2
9 -33 20 -68 25 -82 81 -147 158 -185 50 -24 68 -28 147 -28 93 1 94 1 223 69
30 17 35 17 57 2 17 -11 25 -26 25 -45 0 -24 -9 -35 -46 -60 -188 -124 -441
-100 -582 54 -88 96 -117 189 -110 346 4 85 9 106 40 171 20 41 54 91 79 116
68 66 176 113 279 121 8 0 44 -4 79 -9z m914 -5 c191 -40 321 -182 348 -380 5
-44 9 -165 7 -268 -3 -173 -5 -190 -22 -203 -26 -19 -65 -18 -88 3 -13 12 -18
31 -18 73 l0 57 -45 -43 c-164 -158 -430 -151 -589 16 -63 66 -91 116 -111
202 -68 288 129 545 425 557 14 0 55 -6 93 -14z m1009 4 c79 -17 132 -43 183
-90 107 -99 125 -168 125 -494 0 -265 -4 -285 -58 -285 -57 0 -57 -4 -62 288
l-5 268 -30 60 c-33 64 -95 115 -163 134 -59 16 -146 12 -204 -10 -58 -22
-130 -86 -147 -133 -7 -17 -11 -131 -11 -290 0 -297 -3 -310 -62 -315 -68 -6
-68 -8 -68 431 l0 388 25 24 c13 14 31 25 40 25 28 0 65 -46 65 -81 l0 -31 37
32 c84 74 214 105 335 79z"/>
<path d="M2153 2880 c-96 -19 -187 -98 -217 -187 -31 -90 -54 -84 272 -81
l287 3 -3 30 c-10 84 -89 188 -165 219 -44 18 -124 25 -174 16z"/>
<path d="M2974 2856 c-72 -33 -129 -88 -161 -154 -23 -49 -27 -70 -28 -147 0
-77 4 -98 26 -146 34 -71 87 -125 158 -158 81 -37 193 -36 273 3 71 34 130 99
159 175 30 79 24 204 -14 277 -33 65 -113 137 -174 158 -71 24 -177 21 -239
-8z"/>
</g>
</svg>
