<svg width="1206" height="398" viewBox="0 0 1206 398" fill="none" xmlns="http://www.w3.org/2000/svg">
<path d="M142.197 382.413C116.779 382.413 94.0951 376.622 74.1466 365.039C54.5199 353.134 38.915 337.046 27.332 316.776C16.0708 296.506 10.4401 273.662 10.4401 248.243C10.4401 222.503 15.9099 199.498 26.8494 179.228C37.7889 158.958 52.7503 143.031 71.7335 131.448C90.7168 119.543 112.596 113.591 137.371 113.591C156.997 113.591 175.015 117.452 191.425 125.174C208.156 132.896 222.795 144.479 235.343 159.923C238.883 163.784 240.17 167.967 239.204 172.471C238.239 176.654 235.504 180.354 231 183.572C227.461 186.146 223.439 187.111 218.934 186.467C214.751 185.502 211.051 183.089 207.834 179.228C189.172 157.992 165.685 147.375 137.371 147.375C119.353 147.375 103.426 151.718 89.5906 160.406C76.0771 169.093 65.4594 180.998 57.7374 196.12C50.3371 211.242 46.637 228.617 46.637 248.243C46.637 267.548 50.6589 284.762 58.7026 299.884C66.7464 315.006 78.0076 326.911 92.4864 335.598C106.965 344.286 123.535 348.629 142.197 348.629C154.745 348.629 166.167 347.021 176.463 343.803C187.081 340.264 196.412 334.955 204.455 327.876C208.316 324.659 212.338 322.889 216.521 322.568C220.704 322.246 224.565 323.533 228.104 326.429C231.965 329.968 234.056 333.99 234.378 338.494C235.022 342.999 233.574 346.86 230.035 350.077C206.547 371.634 177.268 382.413 142.197 382.413ZM344.285 380C331.415 380 319.832 376.461 309.536 369.382C299.561 362.304 291.679 352.49 285.887 339.942C280.417 327.394 277.682 312.915 277.682 296.506V21.4096C277.682 15.9399 279.291 11.5962 282.509 8.37873C286.048 4.83949 290.552 3.06987 296.022 3.06987C301.492 3.06987 305.836 4.83949 309.053 8.37873C312.592 11.5962 314.362 15.9399 314.362 21.4096V296.506C314.362 310.341 317.097 321.602 322.567 330.29C328.358 338.977 335.597 343.32 344.285 343.32H356.35C361.177 343.32 365.038 345.09 367.933 348.629C370.829 351.847 372.277 356.19 372.277 361.66C372.277 367.13 370.186 371.634 366.003 375.174C362.142 378.391 356.994 380 350.559 380H344.285ZM504.494 382.413C478.432 382.413 455.266 376.782 434.996 365.521C415.047 353.938 399.281 338.012 387.698 317.741C376.437 297.471 370.806 274.305 370.806 248.243C370.806 221.86 376.115 198.694 386.733 178.745C397.673 158.475 412.634 142.548 431.617 130.965C450.6 119.382 472.479 113.591 497.254 113.591C521.707 113.591 542.943 119.222 560.961 130.483C579.3 141.422 593.457 156.705 603.432 176.332C613.406 195.959 618.393 218.321 618.393 243.417C618.393 248.565 616.784 252.748 613.567 255.965C610.349 258.861 606.167 260.309 601.019 260.309H395.903V229.421H604.88L584.127 244.382C584.448 225.721 581.07 208.99 573.992 194.189C566.913 179.389 556.778 167.806 543.586 159.44C530.716 151.075 515.272 146.892 497.254 146.892C478.914 146.892 462.827 151.236 448.992 159.923C435.156 168.61 424.378 180.676 416.656 196.12C409.256 211.242 405.555 228.617 405.555 248.243C405.555 267.87 409.738 285.245 418.104 300.367C426.791 315.489 438.535 327.394 453.335 336.081C468.136 344.768 485.189 349.112 504.494 349.112C516.077 349.112 527.66 347.181 539.243 343.32C551.147 339.138 560.639 333.99 567.717 327.876C571.257 324.981 575.279 323.533 579.783 323.533C584.288 323.211 588.149 324.337 591.366 326.911C595.549 330.772 597.64 334.955 597.64 339.459C597.962 343.964 596.192 347.825 592.331 351.042C581.714 360.051 568.2 367.613 551.791 373.726C535.382 379.517 519.616 382.413 504.494 382.413ZM764.014 382.413C739.239 382.413 717.038 376.622 697.412 365.039C677.785 353.134 662.18 337.046 650.597 316.776C639.336 296.506 633.705 273.662 633.705 248.243C633.705 222.503 639.497 199.498 651.08 179.228C662.984 158.958 679.072 143.031 699.342 131.448C719.612 119.543 742.457 113.591 767.875 113.591C793.293 113.591 815.976 119.543 835.925 131.448C856.195 143.031 872.122 158.958 883.705 179.228C895.61 199.498 901.723 222.503 902.045 248.243L887.083 259.826C887.083 282.992 881.613 303.906 870.674 322.568C860.056 340.907 845.417 355.547 826.755 366.486C808.415 377.104 787.502 382.413 764.014 382.413ZM767.875 348.629C786.536 348.629 803.106 344.286 817.585 335.598C832.386 326.911 843.969 315.006 852.334 299.884C861.021 284.44 865.365 267.227 865.365 248.243C865.365 228.938 861.021 211.725 852.334 196.602C843.969 181.48 832.386 169.575 817.585 160.888C803.106 151.879 786.536 147.375 767.875 147.375C749.535 147.375 732.965 151.879 718.164 160.888C703.364 169.575 691.62 181.48 682.933 196.602C674.246 211.725 669.902 228.938 669.902 248.243C669.902 267.227 674.246 284.44 682.933 299.884C691.62 315.006 703.364 326.911 718.164 335.598C732.965 344.286 749.535 348.629 767.875 348.629ZM883.222 380C877.752 380 873.248 378.391 869.709 375.174C866.169 371.634 864.4 367.13 864.4 361.66V279.131L873.57 241.004L902.045 248.243V361.66C902.045 367.13 900.275 371.634 896.736 375.174C893.196 378.391 888.692 380 883.222 380ZM1176.54 380C1171.07 380 1166.57 378.23 1163.03 374.691C1159.49 371.152 1157.72 366.808 1157.72 361.66V236.178C1157.72 216.229 1153.86 199.82 1146.14 186.95C1138.74 174.08 1128.44 164.427 1115.25 157.992C1102.38 151.557 1087.74 148.34 1071.33 148.34C1055.56 148.34 1041.25 151.397 1028.38 157.51C1015.83 163.623 1005.85 171.989 998.453 182.606C991.052 193.224 987.352 205.29 987.352 218.803H960.808C961.451 198.533 966.921 180.515 977.217 164.749C987.513 148.662 1001.19 136.113 1018.24 127.104C1035.29 117.774 1054.28 113.108 1075.19 113.108C1098.03 113.108 1118.47 117.935 1136.48 127.587C1154.5 136.918 1168.66 150.753 1178.95 169.093C1189.57 187.433 1194.88 209.794 1194.88 236.178V361.66C1194.88 366.808 1193.11 371.152 1189.57 374.691C1186.03 378.23 1181.69 380 1176.54 380ZM969.013 380C963.221 380 958.556 378.391 955.016 375.174C951.799 371.634 950.19 367.13 950.19 361.66V134.826C950.19 129.035 951.799 124.53 955.016 121.313C958.556 117.774 963.221 116.004 969.013 116.004C974.482 116.004 978.826 117.774 982.043 121.313C985.583 124.53 987.352 129.035 987.352 134.826V361.66C987.352 367.13 985.583 371.634 982.043 375.174C978.826 378.391 974.482 380 969.013 380Z" fill="#094067"/>
</svg>
